<svg version="1.1" id="Layer_1" xmlns="http://www.w3.org/2000/svg" xmlns:xlink="http://www.w3.org/1999/xlink" x="0px" y="0px"
	 width="100%" viewBox="0 0 1024 1008" xml:space="preserve">
<path fill="#000000" opacity="1.000000" stroke="none" 
	d="
M583.292236,414.292114 
	C604.533264,393.088257 625.329590,371.933136 646.645081,351.314728 
	C652.478149,345.672424 658.673279,340.339569 664.436707,334.587219 
	C666.508789,332.519104 668.091797,332.937561 669.923340,334.740173 
	C674.158081,338.908081 678.446594,343.021301 683.677979,348.091736 
	C691.974182,317.163849 699.989014,287.284485 708.428528,255.822311 
	C676.894165,264.145844 646.837769,272.079315 616.781311,280.012756 
	C616.539917,280.577332 616.298523,281.141937 616.057190,281.706512 
	C619.007690,284.318085 621.855774,287.058563 624.936096,289.506714 
	C628.345093,292.216064 627.671875,294.238251 624.825867,297.075104 
	C585.757263,336.018494 546.775269,375.048737 507.806061,414.091675 
	C477.080017,444.875885 446.362610,475.669006 415.760773,506.576385 
	C412.732330,509.635071 410.786652,509.315491 408.002777,506.493042 
	C394.546814,492.850647 380.906311,479.390076 367.479248,465.719635 
	C365.057800,463.254272 362.591400,462.157196 359.158325,462.174957 
	C338.159210,462.283752 317.158447,462.135132 296.160370,462.319458 
	C291.909088,462.356781 290.049469,461.346313 290.483978,456.753540 
	C290.890381,452.457977 290.674103,448.092957 290.564728,443.762756 
	C290.489044,440.766418 291.754791,439.639282 294.729675,439.645508 
	C320.229095,439.698822 345.728668,439.672150 371.228210,439.653168 
	C372.991669,439.651855 374.233429,440.272827 375.540161,441.603180 
	C386.283020,452.540314 397.268311,463.241364 407.907288,474.277069 
	C410.839813,477.318970 412.719086,477.239227 415.545349,474.399414 
	C432.356049,457.508087 449.291962,440.741547 466.153137,423.900360 
	C508.484894,381.618622 550.799866,339.320068 593.116638,297.023315 
	C594.281860,295.858643 595.390991,294.637817 597.045410,292.896881 
	C589.608032,285.343384 582.325928,277.947510 573.996948,269.488525 
	C629.121033,254.725357 683.088257,240.272034 738.532471,225.423141 
	C724.055542,281.028687 709.970825,335.127869 695.947632,388.990723 
	C692.931213,389.422668 692.029480,387.512390 690.805298,386.301697 
	C684.051331,379.622223 677.260193,372.973846 670.711548,366.096191 
	C667.879883,363.122314 665.832153,363.083557 662.932495,366.028351 
	C649.136353,380.039246 635.188782,393.901093 621.287659,407.808563 
	C603.393738,425.710632 585.495605,443.608582 567.594055,461.503052 
	C538.842102,490.243591 510.078339,518.972351 481.333862,547.720398 
	C460.598541,568.458252 439.928864,589.262024 419.142609,609.948730 
	C411.097839,617.955017 410.985291,617.847900 402.915710,609.782288 
	C367.789337,574.673279 332.659668,539.567688 297.559235,504.432800 
	C296.195923,503.068176 294.339630,502.011841 293.868011,499.384613 
	C296.848114,498.103394 299.999390,498.857178 303.025879,498.744171 
	C306.188110,498.626129 309.416809,499.107086 312.513397,498.641174 
	C320.770142,497.398804 326.411621,500.946014 332.079803,506.726593 
	C357.277191,532.423828 382.953125,557.651245 408.302277,583.201111 
	C411.439056,586.362732 412.972870,584.564697 415.092407,582.444153 
	C448.669617,548.850830 482.268799,515.279602 515.861572,481.701874 
	C538.256653,459.316803 560.649414,436.929443 583.292236,414.292114 
z"/>
<path fill="#000000" opacity="1.000000" stroke="none" 
	d="
M605.658203,595.999878 
	C605.654175,549.683960 605.690369,503.867920 605.575623,458.052277 
	C605.565735,454.092468 606.560181,451.114532 609.515625,448.386658 
	C614.530273,443.758179 619.197571,438.754272 624.037354,433.934784 
	C624.929504,433.046448 625.586487,431.660004 627.365601,432.062225 
	C628.777222,433.561554 628.140381,435.483063 628.141418,437.212250 
	C628.177979,496.356415 628.175354,555.500610 628.170105,614.644775 
	C628.169495,621.299500 628.147156,621.306091 621.592224,621.326965 
	C617.927002,621.338623 614.252747,621.163330 610.598938,621.366760 
	C606.966980,621.568848 605.497437,620.212769 605.605652,616.490784 
	C605.799194,609.832275 605.658997,603.164062 605.658203,595.999878 
z"/>
<path fill="#000000" opacity="1.000000" stroke="none" 
	d="
M533.320068,525.092834 
	C540.324280,518.029663 547.121643,511.322418 553.956055,504.578644 
	C555.901855,506.257111 555.248230,508.217255 555.250061,509.926666 
	C555.288391,544.896362 555.191956,579.866394 555.358398,614.835327 
	C555.381653,619.733887 554.129700,621.969177 548.924072,621.394775 
	C545.633606,621.031799 542.236084,621.021484 538.948059,621.394836 
	C533.689331,621.992004 532.554810,619.686157 532.592834,614.822937 
	C532.796204,588.847046 532.661621,562.868591 532.709106,536.891235 
	C532.716064,533.078674 532.239197,529.235474 533.320068,525.092834 
z"/>
</svg>