<svg version="1.1" id="Layer_1" xmlns="http://www.w3.org/2000/svg" xmlns:xlink="http://www.w3.org/1999/xlink" x="0px" y="0px"
	 width="100%" viewBox="0 0 1024 272" enable-background="new 0 0 1024 272" xml:space="preserve">
<path fill="#ffffff" opacity="1.000000" stroke="none" 
	d="
M401.636627,17.069611 
	C404.473419,17.941328 403.272217,19.824984 402.909180,21.219746 
	C395.156830,51.002026 387.337830,80.766968 379.519104,110.531944 
	C379.233978,111.617447 379.276978,112.915184 377.505463,113.659424 
	C371.450928,109.686089 367.521606,103.012543 361.572357,98.673416 
	C359.400391,99.451431 358.289032,101.214645 356.907196,102.593681 
	C333.444763,126.008583 310.056946,149.498291 286.575867,172.894424 
	C266.040253,193.355728 245.396805,213.708786 224.831100,234.139954 
	C220.932785,238.012772 217.055267,241.920197 213.397797,246.016678 
	C211.160294,248.522720 209.433945,248.984985 206.860016,246.401443 
	C185.340912,224.801743 163.737991,203.285553 142.167221,181.737305 
	C141.469360,181.040207 140.689484,180.356689 140.746948,179.219452 
	C147.382233,176.106216 157.689026,177.734772 162.609497,182.651672 
	C176.753754,196.785538 190.900665,210.916733 205.059723,225.035782 
	C206.462677,226.434769 207.955978,227.743149 209.379364,229.067520 
	C212.136765,228.139679 213.636765,226.033676 215.359970,224.317917 
	C259.516876,180.352463 303.627930,136.340958 347.766266,92.356789 
	C351.184845,88.950150 354.859314,85.795364 358.199219,82.316475 
	C360.438629,79.983871 362.277802,79.785172 364.334503,82.347824 
	C366.080414,84.523232 367.879425,86.655998 369.654968,88.807625 
	C370.229431,88.511604 370.803925,88.215576 371.378418,87.919556 
	C376.015137,70.688774 380.651855,53.457996 385.595459,35.086784 
	C367.285797,39.920284 350.055298,44.468903 332.937500,48.987766 
	C332.937500,49.940617 332.804138,50.358788 332.956818,50.561256 
	C338.233490,57.558819 338.232880,57.551472 331.893402,63.893951 
	C292.785004,103.020744 253.640839,142.111954 214.640198,181.345840 
	C211.330322,184.675522 209.294464,185.180801 205.926727,181.488968 
	C200.093552,175.094482 193.553787,169.345505 187.703339,162.965454 
	C183.815781,158.725967 179.672913,156.775284 173.761108,157.060852 
	C163.620529,157.550735 153.435577,157.038452 143.275864,157.256317 
	C139.150696,157.344772 137.378159,155.911896 137.758942,151.789078 
	C137.896240,150.302414 137.866394,148.784760 137.751419,147.293686 
	C137.526276,144.373611 138.714310,142.955139 141.727432,142.962021 
	C156.057465,142.994736 170.387726,143.002747 184.717606,142.943039 
	C187.367371,142.931992 189.020706,144.426025 190.651627,146.137878 
	C196.946320,152.744965 203.245148,159.348068 209.465683,165.872147 
	C246.423553,128.681747 282.432129,92.446617 318.681091,55.969593 
	C315.691528,51.682186 310.360077,48.477406 306.597168,42.503677 
	C338.473877,33.953690 369.873932,25.531536 401.636627,17.069611 
z"/>
<path fill="#0dcb81" opacity="1.000000" stroke="none" 
	d="
M881.986938,157.122589 
	C881.986694,161.771576 881.792603,165.948425 882.034302,170.099899 
	C882.309814,174.830872 879.824097,175.597061 875.846375,175.422775 
	C872.184448,175.262344 868.763000,175.724899 869.030334,170.235291 
	C869.329834,164.085175 869.111633,157.908081 869.057373,151.743286 
	C869.032593,148.930359 868.648254,146.125824 864.943054,146.132324 
	C861.244995,146.138824 860.256958,148.650467 860.259705,151.870911 
	C860.265259,158.202728 860.076111,164.539291 860.266296,170.864914 
	C860.417908,175.910965 857.078430,175.352921 853.885193,175.354782 
	C850.675659,175.356659 847.404053,175.860336 847.630981,170.790176 
	C847.898926,164.803848 847.684082,158.795807 847.674133,152.797180 
	C847.668640,149.466003 847.406982,145.955017 843.062988,145.939056 
	C838.913025,145.923828 838.165039,149.021744 838.234619,152.604019 
	C838.354187,158.766647 838.125122,164.936539 838.269043,171.098083 
	C838.391296,176.331421 834.702454,175.237595 831.696716,175.337723 
	C828.629761,175.439896 825.599548,175.759460 825.687317,171.032242 
	C825.860535,161.704407 825.705505,152.370804 825.724426,143.039673 
	C825.736877,136.901093 829.429810,134.661942 835.021240,137.406616 
	C835.887329,137.831757 836.605530,138.558426 837.320740,139.092377 
	C846.971558,134.629822 849.087524,134.831238 855.653625,140.975586 
	C858.972778,138.361572 862.702026,136.324722 867.095459,135.943848 
	C874.143311,135.332870 880.327759,140.171707 881.264038,147.182495 
	C881.681824,150.311066 881.755554,153.485580 881.986938,157.122589 
z"/>
<path fill="#ffffff" opacity="1.000000" stroke="none" 
	d="
M338.336792,240.966278 
	C338.336975,242.626648 338.191193,243.815125 338.361908,244.956223 
	C339.134827,250.122330 336.826324,251.632767 331.865784,251.401505 
	C324.718536,251.068344 324.688812,251.341446 324.686829,244.164398 
	C324.679138,216.331146 325.306702,188.476898 324.371277,160.675110 
	C324.005157,149.794403 330.477844,145.112915 336.708130,139.297943 
	C337.250946,139.372726 337.793732,139.447525 338.336548,139.522308 
	C338.336548,173.172394 338.336548,206.822479 338.336792,240.966278 
z"/>
<path fill="#ffffff" opacity="1.000000" stroke="none" 
	d="
M478.323486,160.674332 
	C484.688721,165.700958 489.771667,166.380127 495.966400,162.275070 
	C500.659027,159.165390 502.727448,162.457596 504.964539,165.195419 
	C507.708740,168.553833 504.134460,170.030350 502.296478,171.390167 
	C490.536743,180.090454 466.818451,177.595352 461.379303,156.879730 
	C458.230682,144.887939 461.930817,132.532532 470.922058,125.844597 
	C479.330078,119.590508 492.687622,118.994568 501.620758,124.662392 
	C503.498383,125.853699 506.869659,126.859863 504.695618,130.216217 
	C502.785217,133.165512 501.190094,136.965652 496.195557,134.847153 
	C487.436951,131.132065 481.830414,131.662415 477.842896,136.224670 
	C473.551483,141.134628 472.793365,151.635117 476.311737,157.992920 
	C476.790588,158.858185 477.475891,159.609207 478.323486,160.674332 
z"/>
<path fill="#0dcb81" opacity="1.000000" stroke="none" 
	d="
M656.277588,155.220581 
	C655.575195,151.330215 655.492981,147.826797 655.916382,144.351837 
	C658.295593,124.828392 679.854309,114.410065 696.706970,124.690117 
	C698.721985,125.919258 702.216614,126.984642 699.770874,130.624832 
	C697.739746,133.648026 695.977478,136.983536 691.089722,134.597015 
	C682.659241,130.480667 676.075623,131.754211 672.029053,137.757401 
	C667.513733,144.455994 668.546936,156.170013 674.112915,161.383453 
	C678.463318,165.458298 685.158875,165.989624 691.213562,162.434540 
	C693.852295,160.885147 695.934631,160.475632 698.278381,162.921112 
	C701.892944,166.692520 701.858154,168.615616 697.409485,171.567703 
	C683.836426,180.574814 661.033997,176.481918 656.277588,155.220581 
z"/>
<path fill="#0dcb81" opacity="1.000000" stroke="none" 
	d="
M923.277771,161.988846 
	C923.275635,164.652664 923.284363,166.818497 923.267334,168.984146 
	C923.219482,175.053299 919.336243,177.643600 914.038330,174.611465 
	C911.828918,173.347000 910.531555,173.262100 908.320312,174.286148 
	C897.483765,179.304550 888.295654,173.692871 887.818054,161.740921 
	C887.545532,154.921265 887.917725,148.076935 887.690125,141.254028 
	C887.523438,136.257401 890.750732,136.674667 893.999207,136.666290 
	C897.272095,136.657822 900.483398,136.311249 900.272461,141.288132 
	C900.039856,146.775742 900.203674,152.281311 900.239746,157.778748 
	C900.263611,161.417130 899.627380,165.626114 904.791321,166.332214 
	C908.603821,166.853561 910.693115,163.646652 910.703674,157.895569 
	C910.713989,152.231339 910.831299,146.564240 910.690002,140.903702 
	C910.558533,135.641174 914.315125,136.816132 917.288879,136.698593 
	C920.353577,136.577454 923.432983,136.281189 923.307007,141.000687 
	C923.124756,147.826126 923.270813,154.660324 923.277771,161.988846 
z"/>
<path fill="#0dcb81" opacity="1.000000" stroke="none" 
	d="
M704.628296,149.014252 
	C704.633301,146.519501 704.833618,144.498291 704.605042,142.526825 
	C704.063660,137.858902 706.098083,136.402176 710.610168,136.613266 
	C716.769287,136.901413 716.898743,136.776520 716.942017,143.191757 
	C716.981262,149.020569 716.958008,154.850342 717.059753,160.677994 
	C717.114197,163.797363 718.166687,166.646912 721.833435,166.344727 
	C725.145325,166.071777 727.790100,164.494781 727.692017,160.305771 
	C727.540039,153.814087 727.812744,147.311661 727.625488,140.821854 
	C727.497375,136.382385 730.359802,136.580231 733.269836,136.705002 
	C736.226379,136.831772 740.065369,135.588669 740.061890,140.763641 
	C740.055054,150.922943 740.178955,161.083740 740.032471,171.240799 
	C739.975281,175.208847 734.668457,177.322327 730.553040,174.528061 
	C728.034302,172.817947 726.580627,173.488022 724.388855,174.483871 
	C714.159790,179.131500 704.984497,173.299881 704.657104,162.000748 
	C704.536560,157.840530 704.631836,153.674042 704.628296,149.014252 
z"/>
<path fill="#0dcb81" opacity="1.000000" stroke="none" 
	d="
M803.631592,136.297653 
	C813.300232,135.520905 819.152039,140.620239 819.312378,149.729370 
	C819.438416,156.889481 819.182068,164.057877 819.384399,171.214447 
	C819.496216,175.167877 817.286377,175.633179 814.310242,175.316147 
	C811.344727,175.000259 807.057556,176.895309 807.013306,171.288788 
	C806.962036,164.793045 806.940125,158.296936 806.938965,151.800995 
	C806.938354,148.406708 805.923218,145.561218 802.006775,145.784073 
	C798.476929,145.984924 796.948242,148.392700 797.013000,151.990402 
	C797.123779,158.151154 796.865601,164.320786 797.062134,170.477112 
	C797.241638,176.097763 793.456665,175.239487 789.964844,175.379654 
	C786.411133,175.522339 784.427307,174.784180 784.564331,170.484299 
	C784.855957,161.332550 784.581177,152.164032 784.686768,143.004089 
	C784.710022,140.987732 783.642090,138.145065 786.149963,137.189789 
	C788.719910,136.210846 791.702576,136.009323 794.262512,137.868011 
	C794.912354,138.339828 795.534424,138.849884 795.943665,139.167358 
	C798.600220,138.163406 800.921814,137.286011 803.631592,136.297653 
z"/>
<path fill="#0dcb81" opacity="1.000000" stroke="none" 
	d="
M747.054443,172.995667 
	C741.721375,165.448090 743.406311,159.007339 751.341797,155.285355 
	C754.546265,153.782379 757.979431,153.139252 761.455444,152.736282 
	C763.468323,152.502930 765.829102,152.668716 765.508301,149.680008 
	C765.211792,146.918762 763.128296,145.716568 760.598511,145.600494 
	C758.384705,145.498901 756.489319,146.780319 754.508850,147.644913 
	C751.462524,148.974823 749.020264,148.184799 747.204834,145.366257 
	C745.930115,143.387115 745.782349,141.645706 748.044861,140.299332 
	C753.769470,136.892822 759.804382,134.643677 766.552124,136.409485 
	C773.990234,138.355942 777.879517,143.565933 778.147827,151.919632 
	C778.334900,157.744522 778.229187,163.580811 778.168335,169.411102 
	C778.108521,175.137253 774.224548,177.561523 769.493042,174.370712 
	C767.069153,172.736115 765.597473,172.938263 763.338501,174.171265 
	C757.895325,177.142303 752.488220,176.794067 747.054443,172.995667 
M761.210144,160.773712 
	C760.412354,161.008408 759.575867,161.157104 758.824341,161.494812 
	C756.982056,162.322693 755.639587,163.638016 756.555359,165.778687 
	C757.327332,167.583069 759.117249,167.921646 760.815613,167.343048 
	C763.153625,166.546616 765.826477,165.797760 765.642151,162.513626 
	C765.501709,160.009918 763.629578,160.349243 761.210144,160.773712 
z"/>
<path fill="#ffffff" opacity="1.000000" stroke="none" 
	d="
M541.287903,171.788177 
	C539.867004,175.413101 535.820740,176.886032 533.010315,174.444321 
	C530.429077,172.201675 528.759033,173.028259 526.484070,174.298203 
	C524.292419,175.521683 521.849976,176.183975 519.314514,176.156113 
	C513.054382,176.087372 508.152405,172.376968 507.174591,167.060974 
	C506.263550,162.108002 509.060455,157.854767 515.029053,155.175980 
	C518.086975,153.803543 521.302307,152.996933 524.641479,152.730179 
	C526.708252,152.565079 528.894775,152.492584 528.655457,149.578766 
	C528.417664,146.684525 526.323303,145.460953 523.799866,145.716476 
	C521.714844,145.927582 519.694824,146.952652 517.687988,147.725998 
	C513.994873,149.149200 511.492706,147.727676 510.006042,144.387115 
	C508.459106,140.911255 511.592163,140.168106 513.602295,138.990219 
	C516.500366,137.291962 519.740295,136.430588 523.041077,135.941147 
	C533.312439,134.418121 541.091858,140.944168 541.298950,151.353683 
	C541.431213,158.003357 541.309937,164.658051 541.287903,171.788177 
M525.614563,160.524002 
	C524.499023,160.814529 523.356201,161.028519 522.274231,161.413361 
	C520.612366,162.004471 519.212585,163.059830 519.577026,165.005981 
	C519.941223,166.950867 521.683655,167.574158 523.389282,167.379105 
	C525.924622,167.089157 528.229370,166.179596 528.927490,163.274231 
	C529.465210,161.036530 528.462585,160.196686 525.614563,160.524002 
z"/>
<path fill="#ffffff" opacity="1.000000" stroke="none" 
	d="
M606.360352,169.864807 
	C605.918396,175.179901 602.359680,177.339539 598.367310,174.480270 
	C595.728027,172.590042 594.069153,173.088974 591.745056,174.309647 
	C588.064392,176.242783 584.197876,176.551071 580.140991,175.357162 
	C575.871338,174.100677 573.216797,171.492050 572.548218,167.076447 
	C571.883850,162.688400 573.520386,159.218903 577.221680,156.824738 
	C581.220032,154.238403 585.682129,153.024490 590.413574,152.691574 
	C591.998169,152.580063 594.170288,152.967621 594.235291,150.579681 
	C594.291687,148.509262 593.287354,146.779877 591.063660,145.984604 
	C588.194641,144.958557 585.842041,146.415695 583.456726,147.472702 
	C580.423218,148.816940 577.977356,148.372177 575.974792,145.698959 
	C574.431946,143.639343 574.220215,141.701767 576.703430,140.243591 
	C582.277588,136.970291 588.133667,134.721176 594.743896,136.290070 
	C602.555420,138.144089 606.240784,142.815430 606.336853,150.900406 
	C606.410034,157.059631 606.359558,163.220352 606.360352,169.864807 
M584.818359,164.433075 
	C587.002197,167.754044 590.445679,168.155426 593.224121,165.417053 
	C594.370605,164.287140 595.047424,162.932892 594.286865,161.414902 
	C593.509277,159.863037 591.999512,160.371582 590.768127,160.717270 
	C588.624207,161.319138 586.010559,161.117096 584.818359,164.433075 
z"/>
<path fill="#ffffff" opacity="1.000000" stroke="none" 
	d="
M295.334839,226.000122 
	C295.327301,233.166153 295.164154,239.837082 295.373871,246.496277 
	C295.492645,250.268555 293.962982,251.682632 290.371887,251.322250 
	C289.547119,251.239456 288.693939,251.219864 287.875488,251.330872 
	C283.121857,251.975632 281.480865,250.047974 281.571869,245.191101 
	C281.840332,230.864029 281.941589,216.520767 281.533203,202.200256 
	C281.361542,196.180664 282.784241,191.490662 287.615356,187.873825 
	C289.840576,186.207901 291.208588,183.488846 295.335266,182.011398 
	C295.335266,196.861252 295.335266,211.180679 295.334839,226.000122 
z"/>
<path fill="#ffffff" opacity="1.000000" stroke="none" 
	d="
M563.027771,135.931824 
	C564.646057,136.372269 565.962585,136.707352 567.262817,136.653229 
	C570.299194,136.526840 571.314331,137.937332 571.345825,140.862518 
	C571.378723,143.922638 570.531189,145.720322 567.141357,145.366486 
	C563.090454,144.943619 561.840210,147.036179 562.088440,150.744080 
	C562.254822,153.228317 562.093140,155.732941 562.133179,158.227570 
	C562.191956,161.892593 561.014465,166.019028 567.274719,166.178955 
	C569.434448,166.234131 571.378296,169.324677 571.524536,171.781036 
	C571.667603,174.183945 568.872742,174.457840 567.084717,175.047577 
	C556.505493,178.536911 549.692688,173.590591 549.652283,162.494247 
	C549.638306,158.668228 549.589722,154.841125 549.660522,151.016434 
	C549.711731,148.250519 549.790771,145.746689 546.158447,144.943588 
	C544.342712,144.542160 543.994995,142.598740 544.017517,140.840775 
	C544.038879,139.173782 544.654907,137.885025 546.460327,137.600143 
	C549.875549,137.061218 551.079773,134.611053 551.477295,131.647461 
	C552.020935,127.594818 553.699280,125.320877 558.283020,125.651588 
	C563.158020,126.003319 561.769043,129.520096 562.134766,132.247375 
	C562.287659,133.387054 562.521545,134.515884 563.027771,135.931824 
z"/>
<path fill="#ffffff" opacity="1.000000" stroke="none" 
	d="
M615.591125,168.834274 
	C613.897766,162.528046 615.007935,156.501511 614.693665,150.537140 
	C614.570557,148.200821 614.946411,145.859009 611.674927,145.138672 
	C609.554443,144.671799 609.228943,142.627335 609.181335,140.714951 
	C609.130676,138.679794 610.343018,137.746033 612.183716,137.369171 
	C615.640076,136.661530 616.252747,133.894638 616.835754,131.032455 
	C617.429688,128.116425 618.392761,125.703621 622.195740,125.644173 
	C625.742249,125.588753 627.658630,126.655502 627.271973,130.452301 
	C626.860535,134.492752 627.555298,137.449860 632.737671,136.734787 
	C635.671204,136.330002 636.387512,138.179169 636.340454,140.752930 
	C636.294434,143.272064 636.220886,145.688187 632.765015,145.322968 
	C628.208252,144.841385 626.835938,147.015121 627.256104,151.211121 
	C627.487366,153.520844 627.296509,155.873199 627.289429,158.206314 
	C627.277954,161.965530 626.349670,165.951035 632.507202,166.120239 
	C634.853149,166.184708 636.524963,169.310944 636.608459,171.805786 
	C636.688538,174.200470 634.010620,174.562408 632.192993,175.142593 
	C624.409729,177.627029 619.400146,175.778320 615.591125,168.834274 
z"/>
</svg>